<svg xmlns="http://www.w3.org/2000/svg" version="1.1" xmlns:xlink="http://www.w3.org/1999/xlink" xmlns:svgjs="http://svgjs.dev/svgjs" viewBox="0 0 9.775793084445432 1.8638791491659408"><g transform="matrix(1,0,0,1,2.3038395345514595,0.35893957458297054)"><g><path d=" M 0.2955 0.9809999999999999 L 0.2955 0.17849999999999988 L 0.438 0.17849999999999988 C 0.45 0.17849999999999988 0.459 0.1874999999999999 0.459 0.1994999999999999 L 0.459 0.96 C 0.459 0.9779999999999999 0.4545 0.9809999999999999 0.438 0.9809999999999999 Z M 0.5175 1.146 C 0.5985 1.146 0.66 1.1055 0.66 1.029 L 0.66 0.15599999999999992 C 0.66 0.06449999999999978 0.6075 0.013499999999999845 0.4965 0.013499999999999845 L 0.063 0.013499999999999845 C 0.042 0.013499999999999845 0.03 0.025499999999999856 0.03 0.038999999999999924 C 0.03 0.07049999999999979 0.0945 0.10499999999999998 0.0945 0.16499999999999992 L 0.0945 0.9944999999999999 C 0.0945 1.0545 0.03 1.089 0.03 1.1204999999999998 C 0.03 1.134 0.042 1.146 0.063 1.146 Z M 1.024447265625 0.7424999999999999 L 1.123447265625 0.32099999999999984 L 1.195447265625 0.6509999999999999 Z M 1.475947265625 0.9614999999999999 C 1.4594472656250002 0.9015 1.274947265625 0.16499999999999992 1.274947265625 0.11849999999999983 C 1.274947265625 0.08999999999999986 1.313947265625 0.058499999999999774 1.313947265625 0.04049999999999998 C 1.313947265625 0.0239999999999998 1.301947265625 0.013499999999999845 1.280947265625 0.013499999999999845 L 0.970447265625 0.013499999999999845 C 0.949447265625 0.013499999999999845 0.937447265625 0.0239999999999998 0.937447265625 0.04049999999999998 C 0.937447265625 0.058499999999999774 0.9764472656250001 0.08999999999999986 0.9764472656250001 0.11849999999999983 C 0.9764472656250001 0.16499999999999992 0.772447265625 0.966 0.760447265625 1.0125 C 0.746947265625 1.065 0.688447265625 1.095 0.688447265625 1.119 C 0.688447265625 1.1355 0.700447265625 1.146 0.7214472656250001 1.146 L 0.9884472656250001 1.146 C 1.012447265625 1.146 1.022947265625 1.134 1.022947265625 1.119 C 1.022947265625 1.095 0.968947265625 1.0755 0.968947265625 1.017 L 0.968947265625 0.9764999999999999 L 1.240447265625 0.8294999999999999 C 1.240447265625 0.8294999999999999 1.289947265625 1.0319999999999998 1.289947265625 1.0425 C 1.289947265625 1.0785 1.250947265625 1.095 1.250947265625 1.119 C 1.250947265625 1.134 1.261447265625 1.146 1.285447265625 1.146 L 1.531447265625 1.146 C 1.5524472656250001 1.146 1.5644472656250001 1.1355 1.5644472656250001 1.119 C 1.5644472656250001 1.095 1.499947265625 1.053 1.475947265625 0.9614999999999999 Z M 1.889861572265625 0.9809999999999999 L 1.889861572265625 0.17849999999999988 L 2.032361572265625 0.17849999999999988 C 2.044361572265625 0.17849999999999988 2.053361572265625 0.1874999999999999 2.053361572265625 0.1994999999999999 L 2.053361572265625 0.96 C 2.053361572265625 0.9779999999999999 2.048861572265625 0.9809999999999999 2.032361572265625 0.9809999999999999 Z M 2.111861572265625 1.146 C 2.192861572265625 1.146 2.254361572265625 1.1055 2.254361572265625 1.029 L 2.254361572265625 0.15599999999999992 C 2.254361572265625 0.06449999999999978 2.201861572265625 0.013499999999999845 2.090861572265625 0.013499999999999845 L 1.657361572265625 0.013499999999999845 C 1.636361572265625 0.013499999999999845 1.624361572265625 0.025499999999999856 1.624361572265625 0.038999999999999924 C 1.624361572265625 0.07049999999999979 1.688861572265625 0.10499999999999998 1.688861572265625 0.16499999999999992 L 1.688861572265625 0.9944999999999999 C 1.688861572265625 1.0545 1.624361572265625 1.089 1.624361572265625 1.1204999999999998 C 1.624361572265625 1.134 1.636361572265625 1.146 1.657361572265625 1.146 Z M 2.765832275390625 0.17849999999999988 C 2.858832275390625 0.17849999999999988 2.858832275390625 0.1874999999999999 2.888832275390625 0.22049999999999992 C 2.914332275390625 0.25049999999999983 2.926332275390625 0.26249999999999984 2.945832275390625 0.26249999999999984 C 2.9698322753906248 0.26249999999999984 2.986332275390625 0.24599999999999989 2.986332275390625 0.22199999999999986 L 2.986332275390625 0.038999999999999924 C 2.986332275390625 0.014999999999999902 2.9698322753906248 -2.220446049250313e-16 2.945832275390625 -2.220446049250313e-16 C 2.936832275390625 -2.220446049250313e-16 2.921832275390625 0.0014999999999998348 2.896332275390625 0.0044999999999999485 C 2.866332275390625 0.008999999999999897 2.827332275390625 0.013499999999999845 2.803332275390625 0.013499999999999845 L 2.527332275390625 0.013499999999999845 C 2.420832275390625 0.013499999999999845 2.401332275390625 -2.220446049250313e-16 2.377332275390625 -2.220446049250313e-16 C 2.353332275390625 -2.220446049250313e-16 2.344332275390625 0.010499999999999954 2.344332275390625 0.034499999999999975 L 2.344332275390625 0.23099999999999987 C 2.344332275390625 0.2489999999999999 2.354832275390625 0.26249999999999984 2.3713322753906247 0.26249999999999984 C 2.392332275390625 0.26249999999999984 2.4058322753906247 0.24749999999999994 2.438832275390625 0.21899999999999986 C 2.471832275390625 0.1904999999999999 2.480832275390625 0.17849999999999988 2.564832275390625 0.17849999999999988 L 2.564832275390625 0.9944999999999999 C 2.564832275390625 1.0545 2.5003322753906247 1.089 2.5003322753906247 1.1204999999999998 C 2.5003322753906247 1.134 2.5123322753906248 1.146 2.533332275390625 1.146 L 2.797332275390625 1.146 C 2.818332275390625 1.146 2.830332275390625 1.134 2.830332275390625 1.1204999999999998 C 2.830332275390625 1.089 2.765832275390625 1.0545 2.765832275390625 0.9944999999999999 Z M 3.218829345703125 1.146 L 3.514329345703125 1.146 C 3.605829345703125 1.146 3.662829345703125 1.0785 3.662829345703125 1.017 L 3.662829345703125 0.14249999999999985 C 3.662829345703125 0.07649999999999979 3.604329345703125 0.013499999999999845 3.514329345703125 0.013499999999999845 L 3.218829345703125 0.013499999999999845 C 3.139329345703125 0.013499999999999845 3.076329345703125 0.05549999999999988 3.076329345703125 0.1349999999999998 L 3.076329345703125 1.0245 C 3.076329345703125 1.1024999999999998 3.137829345703125 1.146 3.218829345703125 1.146 Z M 3.277329345703125 0.9704999999999999 L 3.277329345703125 0.18899999999999983 C 3.277329345703125 0.18299999999999994 3.281829345703125 0.17849999999999988 3.287829345703125 0.17849999999999988 L 3.451329345703125 0.17849999999999988 C 3.457329345703125 0.17849999999999988 3.461829345703125 0.18299999999999994 3.461829345703125 0.18899999999999983 L 3.461829345703125 0.9704999999999999 C 3.461829345703125 0.9749999999999999 3.457329345703125 0.9809999999999999 3.451329345703125 0.9809999999999999 L 3.287829345703125 0.9809999999999999 C 3.281829345703125 0.9809999999999999 3.277329345703125 0.9749999999999999 3.277329345703125 0.9704999999999999 Z M 4.196750244140625 0.17849999999999988 C 4.211750244140625 0.17849999999999988 4.217750244140625 0.1844999999999999 4.217750244140625 0.19799999999999984 L 4.217750244140625 0.45299999999999985 C 4.217750244140625 0.4634999999999999 4.2147502441406255 0.4754999999999999 4.181750244140625 0.4979999999999999 L 4.033250244140625 0.5999999999999999 L 4.033250244140625 0.17849999999999988 Z M 4.417250244140625 1.011 C 4.406750244140625 0.9914999999999999 4.343750244140625 0.8324999999999999 4.282250244140625 0.6555 C 4.351250244140625 0.6119999999999999 4.418750244140625 0.5729999999999998 4.418750244140625 0.5084999999999998 L 4.418750244140625 0.15599999999999992 C 4.418750244140625 0.05699999999999994 4.3557502441406255 0.011999999999999789 4.255250244140625 0.011999999999999789 L 3.8007502441406253 0.013499999999999845 C 3.779750244140625 0.013499999999999845 3.767750244140625 0.025499999999999856 3.767750244140625 0.038999999999999924 C 3.767750244140625 0.07049999999999979 3.832250244140625 0.10499999999999998 3.832250244140625 0.16499999999999992 L 3.832250244140625 0.9944999999999999 C 3.832250244140625 1.0545 3.767750244140625 1.089 3.767750244140625 1.1204999999999998 C 3.767750244140625 1.134 3.779750244140625 1.146 3.8007502441406253 1.146 L 4.064750244140625 1.146 C 4.085750244140625 1.146 4.0977502441406255 1.134 4.0977502441406255 1.1204999999999998 C 4.0977502441406255 1.089 4.033250244140625 1.0545 4.033250244140625 0.9944999999999999 L 4.033250244140625 0.8264999999999999 C 4.033250244140625 0.8174999999999999 4.034750244140625 0.813 4.039250244140625 0.8099999999999998 L 4.094750244140625 0.7754999999999999 C 4.094750244140625 0.7754999999999999 4.199750244140625 1.0439999999999998 4.199750244140625 1.0605 C 4.199750244140625 1.0935 4.165250244140625 1.0979999999999999 4.165250244140625 1.1204999999999998 C 4.165250244140625 1.134 4.178750244140625 1.146 4.199750244140625 1.146 L 4.459250244140625 1.146 C 4.475750244140626 1.146 4.490750244140625 1.134 4.490750244140625 1.1204999999999998 C 4.490750244140625 1.0875 4.462250244140625 1.0904999999999998 4.417250244140625 1.011 Z M 4.8161945800781245 0.16499999999999992 C 4.8161945800781245 0.10499999999999998 4.880694580078125 0.07049999999999979 4.880694580078125 0.038999999999999924 C 4.880694580078125 0.025499999999999856 4.868694580078125 0.013499999999999845 4.847694580078125 0.013499999999999845 L 4.583694580078125 0.013499999999999845 C 4.562694580078125 0.013499999999999845 4.550694580078125 0.025499999999999856 4.550694580078125 0.038999999999999924 C 4.550694580078125 0.07049999999999979 4.615194580078125 0.10499999999999998 4.615194580078125 0.16499999999999992 L 4.615194580078125 0.9944999999999999 C 4.615194580078125 1.0545 4.550694580078125 1.089 4.550694580078125 1.1204999999999998 C 4.550694580078125 1.134 4.562694580078125 1.146 4.583694580078125 1.146 L 4.847694580078125 1.146 C 4.868694580078125 1.146 4.880694580078125 1.134 4.880694580078125 1.1204999999999998 C 4.880694580078125 1.089 4.8161945800781245 1.0545 4.8161945800781245 0.9944999999999999 Z M 5.2766176757812495 0.7424999999999999 L 5.37561767578125 0.32099999999999984 L 5.44761767578125 0.6509999999999999 Z M 5.72811767578125 0.9614999999999999 C 5.71161767578125 0.9015 5.527117675781249 0.16499999999999992 5.527117675781249 0.11849999999999983 C 5.527117675781249 0.08999999999999986 5.56611767578125 0.058499999999999774 5.56611767578125 0.04049999999999998 C 5.56611767578125 0.0239999999999998 5.554117675781249 0.013499999999999845 5.5331176757812495 0.013499999999999845 L 5.222617675781249 0.013499999999999845 C 5.201617675781249 0.013499999999999845 5.18961767578125 0.0239999999999998 5.18961767578125 0.04049999999999998 C 5.18961767578125 0.058499999999999774 5.2286176757812495 0.08999999999999986 5.2286176757812495 0.11849999999999983 C 5.2286176757812495 0.16499999999999992 5.02461767578125 0.966 5.012617675781249 1.0125 C 4.99911767578125 1.065 4.940617675781249 1.095 4.940617675781249 1.119 C 4.940617675781249 1.1355 4.95261767578125 1.146 4.97361767578125 1.146 L 5.24061767578125 1.146 C 5.26461767578125 1.146 5.2751176757812495 1.134 5.2751176757812495 1.119 C 5.2751176757812495 1.095 5.221117675781249 1.0755 5.221117675781249 1.017 L 5.221117675781249 0.9764999999999999 L 5.49261767578125 0.8294999999999999 C 5.49261767578125 0.8294999999999999 5.54211767578125 1.0319999999999998 5.54211767578125 1.0425 C 5.54211767578125 1.0785 5.503117675781249 1.095 5.503117675781249 1.119 C 5.503117675781249 1.134 5.51361767578125 1.146 5.53761767578125 1.146 L 5.783617675781249 1.146 C 5.80461767578125 1.146 5.8166176757812496 1.1355 5.8166176757812496 1.119 C 5.8166176757812496 1.095 5.75211767578125 1.053 5.72811767578125 0.9614999999999999 Z M 6.142031982421874 0.9809999999999999 L 6.142031982421874 0.16499999999999992 C 6.142031982421874 0.10499999999999998 6.2065319824218745 0.07049999999999979 6.2065319824218745 0.038999999999999924 C 6.2065319824218745 0.025499999999999856 6.194531982421874 0.013499999999999845 6.173531982421874 0.013499999999999845 L 5.909531982421874 0.013499999999999845 C 5.888531982421874 0.013499999999999845 5.8765319824218745 0.025499999999999856 5.8765319824218745 0.038999999999999924 C 5.8765319824218745 0.07049999999999979 5.941031982421874 0.10499999999999998 5.941031982421874 0.16499999999999992 L 5.941031982421874 0.9944999999999999 C 5.941031982421874 1.0545 5.8765319824218745 1.089 5.8765319824218745 1.1204999999999998 C 5.8765319824218745 1.134 5.888531982421874 1.146 5.909531982421874 1.146 L 6.383531982421874 1.146 C 6.419531982421875 1.146 6.434531982421874 1.131 6.434531982421874 1.095 L 6.434531982421874 0.7785 C 6.434531982421874 0.7619999999999999 6.421031982421875 0.7499999999999999 6.409031982421874 0.7499999999999999 C 6.391031982421874 0.7499999999999999 6.274031982421874 0.8294999999999999 6.250031982421874 0.8474999999999999 C 6.238031982421874 0.8564999999999999 6.233531982421875 0.8639999999999999 6.233531982421875 0.8864999999999998 L 6.233531982421875 0.9809999999999999 Z M 6.672998291015624 1.146 L 6.938498291015624 1.146 C 7.010498291015624 1.146 7.080998291015624 1.0844999999999998 7.080998291015624 1.023 L 7.080998291015624 0.714 C 7.080998291015624 0.6495 7.053998291015624 0.6194999999999999 7.004498291015624 0.5864999999999999 L 6.753998291015624 0.4139999999999999 C 6.729998291015624 0.3959999999999999 6.725498291015624 0.3839999999999999 6.725498291015624 0.3629999999999999 L 6.725498291015624 0.17849999999999988 L 6.864998291015624 0.17849999999999988 L 6.864998291015624 0.2789999999999999 C 6.864998291015624 0.31799999999999984 6.8769982910156235 0.3314999999999999 6.890498291015624 0.3404999999999999 C 6.915998291015624 0.3569999999999999 6.996998291015624 0.4139999999999999 7.032998291015624 0.4139999999999999 C 7.047998291015624 0.4139999999999999 7.065998291015624 0.3959999999999999 7.065998291015624 0.3689999999999999 L 7.065998291015624 0.13649999999999984 C 7.065998291015624 0.07499999999999996 7.007498291015624 0.013499999999999845 6.917498291015624 0.013499999999999845 L 6.666998291015624 0.013499999999999845 C 6.587498291015624 0.013499999999999845 6.5244982910156235 0.053999999999999826 6.5244982910156235 0.12899999999999978 L 6.5244982910156235 0.4274999999999999 C 6.5244982910156235 0.49349999999999994 6.561998291015624 0.5249999999999999 6.605498291015624 0.5549999999999999 L 6.8529982910156235 0.726 C 6.872498291015624 0.7394999999999998 6.879998291015624 0.7529999999999999 6.879998291015624 0.7725 L 6.879998291015624 0.9809999999999999 L 6.725498291015624 0.9809999999999999 L 6.725498291015624 0.8399999999999999 C 6.725498291015624 0.8009999999999999 6.713498291015624 0.7874999999999999 6.699998291015624 0.7785 C 6.675998291015624 0.7605 6.593498291015624 0.7049999999999998 6.563498291015624 0.7049999999999998 C 6.542498291015624 0.7049999999999998 6.5244982910156235 0.7214999999999999 6.5244982910156235 0.7484999999999999 L 6.5244982910156235 1.023 C 6.5244982910156235 1.0844999999999998 6.584498291015624 1.146 6.672998291015624 1.146 Z" fill="#8a615c" fill-rule="nonzero"></path></g><g></g><g clip-path="url(&quot;#SvgjsClipPath1002&quot;)"><g clip-path="url(&quot;#SvgjsClipPath1000&quot;)"><path d=" M -0.5226968924061821 0.8156821314264422 L -0.4432779880393094 0.8305853784354678 L -0.562178565705201 0.5860159362524234 L -0.49981053782900364 0.5977085856525177 L -0.6580409362043025 0.2723101793419212 L -0.8162496413525147 0.5977085856525177 L -0.7538816134763173 0.5860159362524234 L -0.802192430199897 0.6853926095396797 L -0.8817631871563818 0.5217605976196245 L -0.8125834859747489 0.5347765338720478 L -0.9880816931115973 0.17373615545689747 L -1.1502168723626238 0.5072912151523465 L -1.207096513785716 0.3902996414701435 L -1.1239680675869026 0.4058970717459643 L -1.3348479281032564 -0.027967470001497356 L -1.5457494818466975 0.4058970717459643 L -1.4626210356478841 0.3902996414701435 L -1.555424661127666 0.5812000398390265 L -1.7113989638858784 0.26035721121677896 L -1.8717119120615657 0.5900942629448498 L -1.808519541556048 0.5782497609551442 L -1.9289820315722306 0.8260514939742069 L -1.8485218523051636 0.8108662350130458 L -1.9728674299699864 1.0666293823731747 L -1.766261135189845 1.027863585568039 L -1.766261135189845 1.1739023903202344 L -0.6038946413942197 1.1739023903202344 L -0.6038946413942197 1.0297725895517278 L -0.3999783067729128 1.0680394421338537 Z M -1.5841464937913476 0.6402490039708563 L -1.6143000794427962 0.5782497609551442 L -1.559047430051257 0.5886191235029083 Z M -1.0944001990668126 0.521760597619625 L -1.1187833863130199 0.5719153386456315 L -1.1391099400938884 0.5301341832753511 Z M -0.9228935457140408 0.7998894621068353 C -0.9408072166468544 0.8286719164440499 -0.9672270324127401 0.851172350645814 -0.9984944421135363 0.8642749601021592 C -1.0023124500809142 0.8654463943648765 -1.0035706572519816 0.8598278485492464 -1.0050024102397481 0.8562267728527428 C -1.0160551195640455 0.8314924550375806 -1.029419665871303 0.8078575454268112 -1.0449179480805142 0.7856370119104327 C -1.0545063544531335 0.7959412947769328 -1.0630317926984711 0.8051609162890669 -1.0679127687931302 0.8104974501525599 C -1.0821435257624472 0.8260948804283812 -1.1238379082243783 0.865728406317012 -1.148177709016411 0.8884195218504047 C -1.1134820204647289 0.9123872217708158 -1.0809157660617639 0.9392995621599836 -1.0508401990753682 0.9688580078903836 C -1.0326612747761492 0.9917226692404751 -0.9903377887286843 1.0409879879558992 -0.9845890835505305 1.0531578883519157 C -0.9821160556625699 1.0583425696257978 -0.9827451592481038 1.05881982062172 -0.9827451592481038 1.05881982062172 C -0.9866082480998087 1.0637736366904473 -0.990758792803629 1.0684964205419147 -0.9951753783691681 1.0729638046826868 C -1.008152618784359 1.0785703780050948 -1.0217049271670737 1.0827386403257044 -1.0355898604329448 1.0853940238037527 C -1.0423951217726701 1.0819783865754595 -1.0482688360855525 1.0769607903183194 -1.0527058166048824 1.0707727887468628 C -1.0557645616242017 1.0661738246043395 -1.059430717001968 1.0437430277959954 -1.0637259759652675 1.0350657369610468 C -1.0780034980035036 1.0073464103911265 -1.0987582183913123 0.9834810865174434 -1.1242283863119513 0.9654955576918405 C -1.1483512548331098 0.9481409760219424 -1.169003207020289 0.9337366732359269 -1.1864879480527117 0.9206339640751531 C -1.2039509958580474 0.933649900327577 -1.2246246412723136 0.9481409760219424 -1.2487475097934726 0.965495557691841 C -1.2742176777141117 0.9834810865174434 -1.2949723981019203 1.0073464103911265 -1.3092499201401564 1.0350657369610468 C -1.313588565557631 1.0437430277959958 -1.3172113344812222 1.0661738246043395 -1.3202700795005418 1.0707727887468623 C -1.3247018960717654 1.076965531331521 -1.330576898392866 1.0819842278643752 -1.3373860356724792 1.0853940238037527 C -1.3512709689383504 1.0827386403257044 -1.3648232773210651 1.0785703780050948 -1.3778005177362558 1.0729638046826877 C -1.3822171033017945 1.0684964205419152 -1.386367648005615 1.0637736366904482 -1.39023073685732 1.05881982062172 C -1.394093825709025 1.053866004552992 -1.390859840442854 1.0583425696257978 -1.3883868125548933 1.0531578883519157 C -1.3826381073767395 1.0409879879558992 -1.340314621329275 0.9917226692404751 -1.322135697030056 0.9688580078903841 C -1.29206013004366 0.9392995621599836 -1.2594938756406948 0.9123872217708158 -1.224798187089013 0.8884195218504047 C -1.249094601426871 0.8657284063170125 -1.2907889838888018 0.8260948804283818 -1.3050631273122932 0.8104974501525599 C -1.3099441034069523 0.8051609162890664 -1.31846954165229 0.7959412947769328 -1.328057948024909 0.785637011910431 C -1.3435478245064654 0.8078628357925979 -1.3569119104063598 0.8314969311829543 -1.3679734858656758 0.8562267728527428 C -1.3693835456263548 0.8598278485492464 -1.3706417527974222 0.8654463943648765 -1.3744814539918875 0.8642749601021581 C -1.4057396845406402 0.8511895610185669 -1.4321584130958072 0.8287127948303121 -1.4500823503913824 0.7999545417880966 C -1.4521432069646831 0.7960063744581951 -1.455744282661187 0.7942709162912052 -1.4470236053720629 0.790170896371692 C -1.4360251392387648 0.7849862150978096 -1.3768460157444111 0.7334431075382111 -1.3768460157444111 0.7334431075382111 L -1.3793407368594588 0.7307748406064642 C -1.3636393847906396 0.7133976514822838 -1.3469052796351662 0.6969822911869149 -1.329229382287627 0.681617988026477 L -1.3272769918497633 0.6837873107352141 L -1.3124605177490878 0.6689057569532759 C -1.2927567888209879 0.6817216979540753 -1.2767220278177187 0.6994384268947499 -1.2659285456466725 0.7203187051503503 C -1.266839661184342 0.7208827290546224 -1.2721545018207485 0.7260457171014172 -1.2794217328950181 0.7333346414027743 C -1.2764931472382228 0.7361547609241328 -1.2740635058044374 0.7383674700870448 -1.272479900227059 0.7396256772581126 C -1.2602576625205189 0.7487423096090914 -1.2501555521190773 0.7603985908415236 -1.2428686452527944 0.7737925099207245 C -1.2279334343483899 0.8035993546958624 -1.2089533391050158 0.8312007932017079 -1.186466254825625 0.8558146015380825 C -1.1639791705462343 0.8312007932017079 -1.1449990753028598 0.8035993546958624 -1.1300638643984549 0.7737925099207245 C -1.1227769575321722 0.7603985908415225 -1.1126748471307306 0.7487423096090908 -1.1004526094241907 0.7396256772581115 C -1.0988690038468123 0.7383674700870448 -1.096461055640114 0.7361547609241328 -1.0935107767562315 0.7333346414027743 C -1.1007780078305012 0.7259806374201548 -1.1060928484669077 0.7208176493733599 -1.1070039640045775 0.7203187051503503 C -1.096210481833531 0.6994384268947499 -1.0801757208302618 0.6817216979540753 -1.060471991902162 0.6689057569532759 L -1.0456555178014861 0.6837873107352141 L -1.0437031273636226 0.681617988026477 C -1.026027230016084 0.6969822911869149 -1.0092931248606107 0.7133976514822838 -0.9935917727917911 0.7307748406064642 L -0.9960864939068383 0.7334431075382111 C -0.9960864939068383 0.7334431075382111 -0.9369073704124848 0.7849862150978096 -0.9259089042791866 0.790170896371692 C -0.9172749998984115 0.7942058366099434 -0.9208326891407408 0.7959412947769328 -0.922893545714041 0.7998894621068353 Z" fill="url(#gradient-6beaa3bb-2173-4db5-9966-289d9c19f4ca_0)" transform="matrix(1,0,0,1,0,0)" fill-rule="nonzero"></path></g></g></g><defs><clipPath id="SvgjsClipPath1002"><path d=" M -1.9728674299699862 -0.027967470001496797 h 1.572867429969986 v 1.2019349400029935 h -1.572867429969986 Z"></path></clipPath><clipPath id="SvgjsClipPath1000"><path d=" M -1.9728674299699862 -0.027967470001496797 L -0.40000000000000013 -0.027967470001496797 L -0.40000000000000013 1.1739674700014966 L -1.9728674299699862 1.1739674700014966 Z"></path></clipPath><linearGradient id="gradient-6beaa3bb-2173-4db5-9966-289d9c19f4ca_0" x1="0" x2="1" y1="0" y2="1"><stop stop-color="#e9c3ad" offset="0"></stop><stop stop-color="#8a615c" offset="1"></stop></linearGradient></defs></svg>